HIERARCHY
ROOT Hips
{
	OFFSET -0.001795 -0.223333 0.028219
	CHANNELS 6 Xposition Yposition Zposition Zrotation Yrotation Xrotation 
	JOINT LeftUpLeg
	{
		OFFSET 0.069520 -0.091406 -0.006815
		CHANNELS 3 Zrotation Yrotation Xrotation
		JOINT LeftLeg
		{
			OFFSET 0.034277 -0.375199 -0.004496
			CHANNELS 3 Zrotation Yrotation Xrotation
			JOINT LeftFoot
			{
				OFFSET -0.013596 -0.397961 -0.043693
				CHANNELS 3 Zrotation Yrotation Xrotation
				JOINT LeftToe
				{
					OFFSET 0.026358 -0.055791 0.119288
					CHANNELS 3 Zrotation Yrotation Xrotation
					End Site
					{
						OFFSET 0.000000 0.000000 0.000000
					}
				}
			}
		}
	}
	JOINT RightUpLeg
	{
		OFFSET -0.067670 -0.090522 -0.004320
		CHANNELS 3 Zrotation Yrotation Xrotation
		JOINT RightLeg
		{
			OFFSET -0.038290 -0.382569 -0.008850
			CHANNELS 3 Zrotation Yrotation Xrotation
			JOINT RightFoot
			{
				OFFSET 0.015774 -0.398415 -0.042312
				CHANNELS 3 Zrotation Yrotation Xrotation
				JOINT RightToe
				{
					OFFSET -0.025372 -0.048144 0.123348
					CHANNELS 3 Zrotation Yrotation Xrotation
					End Site
					{
						OFFSET 0.000000 0.000000 0.000000
					}
				}
			}
		}
	}
	JOINT Spine
	{
		OFFSET -0.002533 0.108963 -0.026696
		CHANNELS 3 Zrotation Yrotation Xrotation
		JOINT Spine1
		{
			OFFSET 0.005487 0.135180 0.001092
			CHANNELS 3 Zrotation Yrotation Xrotation
			JOINT Spine2
			{
				OFFSET 0.001457 0.052922 0.025425
				CHANNELS 3 Zrotation Yrotation Xrotation
				JOINT Neck
				{
					OFFSET -0.002778 0.213870 -0.042857
					CHANNELS 3 Zrotation Yrotation Xrotation
					JOINT Head
					{
						OFFSET 0.005152 0.064970 0.051349
						CHANNELS 3 Zrotation Yrotation Xrotation
						End Site
						{
							OFFSET 0.000000 0.000000 0.000000
						}
					}
				}
				JOINT LeftShoulder
				{
					OFFSET 0.078845 0.121749 -0.034090
					CHANNELS 3 Zrotation Yrotation Xrotation
					JOINT LeftArm
					{
						OFFSET 0.090977 0.030469 -0.008868
						CHANNELS 3 Zrotation Yrotation Xrotation
						JOINT LeftForeArm
						{
							OFFSET 0.259612 -0.012772 -0.027456
							CHANNELS 3 Zrotation Yrotation Xrotation
							JOINT LeftHand
							{
								OFFSET 0.249234 0.008986 -0.001171
								CHANNELS 3 Zrotation Yrotation Xrotation
								End Site
								{
									OFFSET 0.000000 0.000000 0.000000
								}
							}
						}
					}
				}
				JOINT RightShoulder
				{
					OFFSET -0.081759 0.118833 -0.038615
					CHANNELS 3 Zrotation Yrotation Xrotation
					JOINT RightArm
					{
						OFFSET -0.096012 0.032551 -0.009143
						CHANNELS 3 Zrotation Yrotation Xrotation
						JOINT RightForeArm
						{
							OFFSET -0.253742 -0.013329 -0.021401
							CHANNELS 3 Zrotation Yrotation Xrotation
							JOINT RightHand
							{
								OFFSET -0.255298 0.007772 -0.005559
								CHANNELS 3 Zrotation Yrotation Xrotation
								End Site
								{
									OFFSET 0.000000 0.000000 0.000000
								}
							}
						}
					}
				}
			}
		}
	}
}
MOTION
Frames: 6
Frame Time: 0.050000
0.006076 0.930835 -0.057333 2.366083 -2.977436 -1.625256 -4.126615 0.601360 4.425565 0.347981 0.153220 -5.148579 5.973427 13.325523 5.759076 0.000000 0.000000 0.000000 -8.406752 0.256584 -1.079051 3.736811 -0.350248 2.460236 -5.219110 -14.235489 6.882706 0.000000 0.000000 0.000000 -2.294414 0.118840 -4.909419 -3.688866 1.850576 2.869674 4.826169 1.984574 3.806593 2.719227 -0.942019 -12.186457 0.000000 0.000000 0.000000 -31.850358 -11.845713 5.210007 -44.414282 -6.648070 -2.963453 -26.371030 -82.034056 27.207893 0.000000 0.000000 0.000000 14.192672 27.927670 12.459963 11.696644 52.546258 1.668773 -113.058684 40.126186 -52.379791 0.000000 0.000000 0.000000 
0.006416 0.931055 -0.057808 2.438919 -2.856849 -1.377532 -4.384342 0.578490 4.151710 0.636753 0.136067 -5.228347 5.916415 13.238140 5.900228 0.000000 0.000000 0.000000 -8.468139 0.265604 -1.290579 3.677291 -0.345232 2.327361 -5.269846 -14.358944 7.037244 0.000000 0.000000 0.000000 -2.249963 0.129965 -5.236093 -3.705095 1.857056 2.891686 4.783988 2.038894 4.009999 2.540312 -0.829157 -12.054813 0.000000 0.000000 0.000000 -31.923673 -11.550090 4.953266 -44.719309 -5.610374 -3.343973 -28.888159 -81.911321 29.351147 0.000000 0.000000 0.000000 14.341340 27.913619 12.522730 12.517330 52.499675 2.007924 -114.242439 40.667509 -54.015859 0.000000 0.000000 0.000000 
0.006776 0.931040 -0.058247 2.567624 -2.711336 -1.103047 -4.654922 0.563420 3.932504 0.839035 0.132266 -5.459837 5.834500 13.106871 6.020786 0.000000 0.000000 0.000000 -8.569759 0.278052 -1.617941 3.577768 -0.333986 2.364979 -5.357113 -14.534383 7.074300 0.000000 0.000000 0.000000 -2.387576 0.131264 -5.461216 -3.792920 1.898791 2.865080 4.787290 2.127576 4.158653 2.283388 -0.631328 -12.240397 0.000000 0.000000 0.000000 -31.791232 -11.419418 4.789013 -44.828473 -4.961460 -3.566297 -32.256135 -82.038163 32.366305 0.000000 0.000000 0.000000 14.490921 27.828505 12.556859 13.046036 52.263715 2.211505 -115.771068 41.110970 -55.853428 0.000000 0.000000 0.000000 
0.007068 0.931111 -0.058669 2.713639 -2.481603 -0.962535 -4.945092 0.564116 3.834795 1.064676 0.125899 -5.646426 5.710291 12.903406 6.140554 0.000000 0.000000 0.000000 -8.631654 0.281615 -1.812142 3.384809 -0.311583 2.465131 -5.472682 -14.763331 7.117953 0.000000 0.000000 0.000000 -2.505531 0.129707 -5.614558 -3.834899 1.919262 2.945630 4.757555 2.066106 4.151401 2.044738 -0.499338 -11.927930 0.000000 0.000000 0.000000 -31.850304 -11.213595 4.618632 -44.952463 -4.311411 -3.796170 -37.210089 -81.997171 36.749389 0.000000 0.000000 0.000000 14.505357 27.796220 12.560447 13.452253 51.913931 2.355791 -117.702437 41.432425 -58.016281 0.000000 0.000000 0.000000 
0.007319 0.931121 -0.059078 2.720796 -2.487789 -0.836751 -4.978462 0.552052 3.726874 1.078114 0.129987 -5.753924 5.703892 12.898620 6.197227 0.000000 0.000000 0.000000 -8.638946 0.289375 -2.015565 3.356315 -0.307135 2.528918 -5.479865 -14.783377 7.150197 0.000000 0.000000 0.000000 -2.611957 0.124847 -5.537295 -3.866585 1.931355 2.800463 4.834227 2.101517 4.204803 1.673869 -0.243794 -12.067239 0.000000 0.000000 0.000000 -31.789608 -11.267666 4.650567 -44.881407 -4.310795 -3.790729 -41.686340 -82.084937 40.832184 0.000000 0.000000 0.000000 14.390157 28.006991 12.654914 13.465097 51.737712 2.345193 -119.278507 41.558862 -59.660058 0.000000 0.000000 0.000000 
0.007529 0.931032 -0.059483 2.675101 -2.395640 -0.643620 -5.007502 0.533185 3.565052 1.202947 0.128912 -5.897546 5.663123 12.828411 6.206235 0.000000 0.000000 0.000000 -8.571356 0.293977 -2.162048 3.311941 -0.303991 2.401232 -5.527091 -14.883328 7.214619 0.000000 0.000000 0.000000 -2.694785 0.122929 -5.543646 -3.850920 1.919370 2.724235 4.880474 1.954694 3.998974 1.429918 -0.092337 -12.072705 0.000000 0.000000 0.000000 -31.819013 -11.183781 4.635896 -44.951839 -4.242001 -3.818398 -46.499950 -81.906380 45.095862 0.000000 0.000000 0.000000 14.388806 28.088297 12.669582 13.493637 51.588502 2.353023 -120.637658 41.687140 -61.214757 0.000000 0.000000 0.000000 
